<svg width="108" height="108" viewBox="0 0 108 108" fill="none" xmlns="http://www.w3.org/2000/svg">
<g clip-path="url(#clip0_232_84)">
<path d="M95.7234 27.1898C95.7234 27.1687 95.7234 27.1687 95.7023 27.1477C95.5969 26.8945 95.4492 26.6836 95.2805 26.4727C95.2805 26.4727 95.2805 26.4516 95.2594 26.4516L86.0203 16.8328V9.1125C86.0203 4.26094 82.0758 0.316406 77.2242 0.316406H21.1359C16.1578 0.316406 12.1289 4.36641 12.1289 9.32344V90.8508C12.1289 95.8289 16.1789 99.8578 21.1359 99.8578H22.0219C22.4227 104.456 26.3039 108.084 30.9867 108.084H86.843C91.8211 108.084 95.85 104.034 95.85 99.0773V27.9703C95.8711 27.6961 95.8078 27.4219 95.7234 27.1898ZM79.2914 16.2L88.5094 25.7766H79.2914V16.2ZM16.5375 90.8719V9.32344C16.5375 6.77109 18.6047 4.70391 21.157 4.70391H77.2453C79.6711 4.70391 81.6328 6.66562 81.6328 9.09141V12.2555L78.6797 9.21797C78.6797 9.21797 78.6586 9.21797 78.6586 9.19687C78.5953 9.13359 78.5109 9.07031 78.4477 9.00703C78.4055 8.98594 78.3844 8.94375 78.3422 8.92266C78.2367 8.83828 78.1102 8.775 77.9836 8.73281C77.9836 8.73281 77.9836 8.73281 77.9625 8.73281C77.6883 8.62734 77.4141 8.56406 77.0977 8.56406H31.0078C26.0297 8.56406 22.0008 12.6141 22.0008 17.5711V95.4914H21.157C18.6047 95.4703 16.5375 93.4031 16.5375 90.8719ZM86.8641 103.697H31.0078C28.4555 103.697 26.3883 101.63 26.3883 99.0773V17.55C26.3883 14.9977 28.4555 12.9305 31.0078 12.9305H74.8828V27.9703C74.8828 29.1938 75.8742 30.1641 77.0766 30.1641H91.4625V99.0773C91.4625 101.63 89.3953 103.697 86.8641 103.697Z" fill="#232323"/>
<path d="M61.741 30.1854H65.8964C67.1199 30.1854 68.0902 29.1939 68.0902 27.9916C68.0902 26.7682 67.0988 25.7979 65.8964 25.7979H61.741C60.5175 25.7979 59.5472 26.7893 59.5472 27.9916C59.5261 29.1939 60.5175 30.1854 61.741 30.1854Z" fill="#232323"/>
<path d="M35.9226 30.1854H49.8023C51.0257 30.1854 51.996 29.1939 51.996 27.9916C51.996 26.7682 51.0046 25.7979 49.8023 25.7979H35.9226C34.6992 25.7979 33.7288 26.7893 33.7288 27.9916C33.7078 29.1939 34.6992 30.1854 35.9226 30.1854Z" fill="#232323"/>
<path d="M80.3258 81.6538H49.8031C48.5797 81.6538 47.6094 82.6452 47.6094 83.8476C47.6094 85.0499 48.6008 86.0413 49.8031 86.0413H80.3258C81.5492 86.0413 82.5195 85.0499 82.5195 83.8476C82.5195 82.6452 81.5492 81.6538 80.3258 81.6538Z" fill="#232323"/>
<path d="M41.3012 81.6538H35.9223C34.6988 81.6538 33.7285 82.6452 33.7285 83.8476C33.7285 85.0499 34.7199 86.0413 35.9223 86.0413H41.3012C42.5246 86.0413 43.4949 85.0499 43.4949 83.8476C43.4949 82.6452 42.5246 81.6538 41.3012 81.6538Z" fill="#232323"/>
<path d="M80.3242 67.9009H72.0766C70.8531 67.9009 69.8828 68.8923 69.8828 70.0946C69.8828 71.297 70.8742 72.2884 72.0766 72.2884H80.3242C81.5477 72.2884 82.518 71.297 82.518 70.0946C82.518 68.8923 81.5477 67.9009 80.3242 67.9009Z" fill="#232323"/>
<path d="M35.9223 72.3094H60.2645C61.4879 72.3094 62.4582 71.318 62.4582 70.1156C62.4582 68.9133 61.4668 67.9219 60.2645 67.9219H35.9223C34.6988 67.9219 33.7285 68.9133 33.7285 70.1156C33.7285 71.318 34.6988 72.3094 35.9223 72.3094Z" fill="#232323"/>
<path d="M80.3254 54.1265H63.809C62.5855 54.1265 61.6152 55.1179 61.6152 56.3202C61.6152 57.5226 62.6066 58.514 63.809 58.514H80.3254C81.5488 58.514 82.5191 57.5226 82.5191 56.3202C82.5191 55.1179 81.5488 54.1265 80.3254 54.1265Z" fill="#232323"/>
<path d="M35.9219 58.535H52.7336C53.957 58.535 54.9273 57.5436 54.9273 56.3412C54.9273 55.1389 53.9359 54.1475 52.7336 54.1475H35.9008C34.6773 54.1475 33.707 55.1389 33.707 56.3412C33.707 57.5436 34.6984 58.535 35.9219 58.535Z" fill="#232323"/>
<path d="M80.3258 39.9517H49.8031C48.5797 39.9517 47.6094 40.9431 47.6094 42.1454C47.6094 43.3688 48.6008 44.3392 49.8031 44.3392H80.3258C81.5492 44.3392 82.5195 43.3478 82.5195 42.1454C82.5195 40.9431 81.5492 39.9517 80.3258 39.9517Z" fill="#232323"/>
<path d="M35.9226 44.3602H39.8882C41.1117 44.3602 42.082 43.3687 42.082 42.1664C42.082 40.943 41.0906 39.9727 39.8882 39.9727H35.9226C34.6992 39.9727 33.7288 40.9641 33.7288 42.1664C33.7078 43.3687 34.6992 44.3602 35.9226 44.3602Z" fill="#232323"/>
</g>
<defs>
<clipPath id="clip0_232_84">
<rect width="108" height="108" fill="white"/>
</clipPath>
</defs>
</svg>
