<svg width="83" height="83" viewBox="0 0 83 83" fill="none" xmlns="http://www.w3.org/2000/svg">
<path d="M37.5058 62.564L31.6214 56.6805L51.871 36.429C59.2283 40.3944 68.5576 39.3546 74.7766 33.1459C82.3513 25.5609 82.3513 13.2628 74.7766 5.68846C67.1923 -1.89615 54.8934 -1.89615 47.3086 5.68846C41.1002 11.8976 40.0655 21.238 44.0283 28.5845L4.16238 68.4584C2.00316 70.6151 2.00316 74.1472 4.16238 76.303C6.31831 78.4596 9.85122 78.4596 12.007 76.303L17.8904 82.1872C18.9747 83.2707 20.7298 83.2707 21.8132 82.1872L25.7359 78.265C26.8215 77.1816 26.8215 75.4262 25.7359 74.3428L19.8521 68.4586L23.7743 64.5243L29.6607 70.4197C30.7442 71.5032 32.5001 71.5032 33.5834 70.4197L37.5058 66.4975C38.5892 65.4026 38.5892 63.6592 37.5058 62.564ZM55.154 13.5338C58.4045 10.2833 63.6824 10.2833 66.9329 13.5338C70.1713 16.7734 70.1713 22.0609 66.9329 25.3011C63.6824 28.5407 58.4045 28.5407 55.154 25.3011C51.9138 22.0611 51.9138 16.7736 55.154 13.5338Z" fill="black"/>
</svg>
