<svg width="95" height="95" viewBox="0 0 95 95" fill="none" xmlns="http://www.w3.org/2000/svg">
<path d="M41.2072 43.7231L29.7014 32.2174L15.1777 46.7403L26.6833 58.2461L26.6759 58.2535L39.0997 70.6772L41.2064 72.7692L41.2139 72.7764L53.6375 60.3528L55.7292 58.2461L93.2611 20.7153L78.7379 6.19238L41.2072 43.7231ZM49.4325 56.147L47.3406 58.2535L41.207 64.3869L41.1996 64.3797L35.0734 58.2535L35.0808 58.2461L23.5752 46.7403L29.7012 40.6143L41.207 52.1199L78.7379 14.5891L84.8641 20.7153L49.4325 56.147Z" fill="black"/>
<path d="M83.125 86.0938H8.90625V11.875H64.6111L70.5486 5.9375H2.96875V92.0312H89.0625V33.2305L83.125 39.168V86.0938Z" fill="black"/>
</svg>
