<svg width="214" height="214" viewBox="0 0 214 214" fill="none" xmlns="http://www.w3.org/2000/svg">
<g clip-path="url(#clip0_338_469)">
<path d="M144.824 107.002L206.15 45.7274C211.214 40.6835 214 33.9695 214 26.8346C214 19.6997 211.214 12.9857 206.15 7.93514C201.113 2.89128 194.38 0.112149 187.245 0.112149C180.103 0.112149 173.383 2.89128 168.326 7.93514L106.986 69.2097L45.6537 7.93514C40.6033 2.8846 33.8829 0.105469 26.7281 0.105469C19.5935 0.105469 12.873 2.8846 7.82261 7.93514C-2.6055 18.3569 -2.61218 35.3056 7.82261 45.7274L69.1621 107.002L7.82929 168.276C-2.6055 178.712 -2.6055 195.66 7.82929 206.075C12.8797 211.119 19.6002 213.898 26.7415 213.898C33.8829 213.898 40.6033 211.119 45.6537 206.069L106.986 144.794L168.319 206.062C173.376 211.106 180.09 213.892 187.225 213.892C194.373 213.892 201.093 211.113 206.144 206.062C216.578 195.627 216.578 178.678 206.144 168.27L144.824 107.002ZM196.684 196.616C191.634 201.659 182.829 201.666 177.765 196.616L111.716 130.625C109.098 127.999 104.869 127.999 102.257 130.625L36.1943 196.622C31.1372 201.666 22.3324 201.666 17.2754 196.622C12.0647 191.411 12.0647 182.934 17.2754 177.723L83.3379 111.725C84.5938 110.469 85.2952 108.786 85.2952 107.002C85.2952 105.232 84.5938 103.528 83.3379 102.279L17.2687 36.281C12.058 31.0701 12.058 22.5924 17.2687 17.3815C19.8006 14.8563 23.1608 13.4667 26.7281 13.4667C30.3088 13.4667 33.6624 14.8563 36.1943 17.3815L102.257 83.3793C104.869 85.9914 109.098 85.9914 111.716 83.3793L177.779 17.3882C182.836 12.3377 191.634 12.3377 196.698 17.3815C199.216 19.9068 200.612 23.2671 200.612 26.8346C200.612 30.402 199.216 33.7557 196.698 36.281L130.635 102.279C128.016 104.891 128.016 109.106 130.635 111.725L196.698 177.716C201.908 182.927 201.908 191.398 196.684 196.616Z" fill="black"/>
</g>
<defs>
<clipPath id="clip0_338_469">
<rect width="214" height="214" fill="white"/>
</clipPath>
</defs>
</svg>
