<svg width="71" height="82" viewBox="0 0 71 82" fill="none" xmlns="http://www.w3.org/2000/svg">
<path d="M29.0215 40.6797H66.7938" stroke="white" stroke-width="8" stroke-linecap="round" stroke-linejoin="round"/>
<path d="M52.3002 66.828V75.5447H5.81113V5.81113H52.3002V14.5278H58.1113V2.90557C58.1113 2.13496 57.8052 1.39592 57.2603 0.85102C56.7154 0.306121 55.9763 0 55.2057 0H2.90556C2.13496 0 1.39592 0.306121 0.851021 0.85102C0.306122 1.39592 0 2.13496 0 2.90557V78.4503C0 79.2209 0.306122 79.9599 0.851021 80.5048C1.39592 81.0497 2.13496 81.3558 2.90556 81.3558H55.2057C55.9763 81.3558 56.7154 81.0497 57.2603 80.5048C57.8052 79.9599 58.1113 79.2209 58.1113 78.4503V66.828H52.3002Z" fill="white"/>
<path d="M66.7941 40.6797L55.1719 52.3019" stroke="white" stroke-width="8" stroke-linecap="round" stroke-linejoin="round"/>
<path d="M66.7941 40.6769L55.1719 29.0547" stroke="white" stroke-width="8" stroke-linecap="round" stroke-linejoin="round"/>
</svg>
