<svg width="90" height="90" viewBox="0 0 90 90" fill="none" xmlns="http://www.w3.org/2000/svg">
<path d="M45.0008 1.80078C36.4566 1.80078 28.1044 4.33442 21.0002 9.08129C13.896 13.8282 8.35891 20.5751 5.08921 28.4689C1.8195 36.3626 0.963995 45.0487 2.63088 53.4287C4.29776 61.8087 8.41216 69.5062 14.4538 75.5478C20.4954 81.5894 28.1929 85.7038 36.5729 87.3707C44.9529 89.0376 53.639 88.1821 61.5327 84.9124C69.4265 81.6427 76.1734 76.1056 80.9203 69.0014C85.6672 61.8972 88.2008 53.5449 88.2008 45.0008C88.2008 33.5434 83.6494 22.5553 75.5478 14.4538C67.4462 6.3522 56.4582 1.80078 45.0008 1.80078ZM45.0008 84.6008C37.1687 84.6008 29.5124 82.2783 23.0002 77.927C16.488 73.5757 11.4124 67.391 8.41517 60.155C5.41794 52.9191 4.63373 44.9569 6.1617 37.2752C7.68968 29.5936 11.4612 22.5375 16.9994 16.9994C22.5375 11.4612 29.5936 7.68966 37.2752 6.16168C44.9569 4.63371 52.9191 5.41792 60.1551 8.41515C67.391 11.4124 73.5757 16.488 77.927 23.0002C82.2783 29.5124 84.6008 37.1686 84.6008 45.0008C84.6008 55.5034 80.4287 65.5758 73.0022 73.0022C65.5758 80.4287 55.5034 84.6008 45.0008 84.6008Z" fill="black" fill-opacity="0.5"/>
<path d="M44.9996 45.7383C38.7935 45.7383 32.8417 48.2036 28.4533 52.592C24.065 56.9803 21.5996 62.9322 21.5996 69.1383C21.5996 69.6157 21.7893 70.0735 22.1268 70.4111C22.4644 70.7486 22.9222 70.9383 23.3996 70.9383C23.877 70.9383 24.3348 70.7486 24.6724 70.4111C25.01 70.0735 25.1996 69.6157 25.1996 69.1383C25.1996 63.887 27.2857 58.8508 30.9989 55.1376C34.7121 51.4243 39.7483 49.3383 44.9996 49.3383C50.2509 49.3383 55.2871 51.4243 59.0003 55.1376C62.7135 58.8508 64.7996 63.887 64.7996 69.1383C64.7996 69.6157 64.9893 70.0735 65.3268 70.4111C65.6644 70.7486 66.1222 70.9383 66.5996 70.9383C67.077 70.9383 67.5348 70.7486 67.8724 70.4111C68.21 70.0735 68.3996 69.6157 68.3996 69.1383C68.3996 66.0653 67.7943 63.0225 66.6184 60.1835C65.4424 57.3445 63.7188 54.7649 61.5459 52.592C59.373 50.4191 56.7934 48.6955 53.9544 47.5195C51.1154 46.3435 48.0725 45.7383 44.9996 45.7383Z" fill="black" fill-opacity="0.5"/>
<path d="M45.0001 42.6763C46.6565 42.632 48.2879 42.2614 49.8009 41.5858C51.3139 40.9102 52.6788 39.9428 53.8174 38.739C54.956 37.5351 55.846 36.1186 56.4364 34.5703C57.0268 33.0221 57.3061 31.3726 57.2581 29.7163C57.3085 28.0585 57.031 26.4071 56.4417 24.8568C55.8524 23.3064 54.9628 21.8877 53.824 20.682C52.6851 19.4762 51.3194 18.5072 49.8052 17.8304C48.291 17.1537 46.6581 16.7825 45.0001 16.7383C43.3422 16.7825 41.7093 17.1537 40.1951 17.8304C38.6809 18.5072 37.3152 19.4762 36.1763 20.682C35.0375 21.8877 34.1479 23.3064 33.5585 24.8568C32.9692 26.4071 32.6918 28.0585 32.7421 29.7163C32.6942 31.3726 32.9734 33.0221 33.5638 34.5703C34.1542 36.1186 35.0442 37.5351 36.1828 38.739C37.3215 39.9428 38.6863 40.9102 40.1993 41.5858C41.7123 42.2614 43.3437 42.632 45.0001 42.6763ZM45.0001 20.3383C46.1855 20.3823 47.3504 20.6601 48.428 21.1559C49.5055 21.6517 50.4745 22.3555 51.2791 23.227C52.0837 24.0986 52.7081 25.1205 53.1164 26.2342C53.5247 27.3478 53.7088 28.5312 53.6581 29.7163C53.7063 30.8999 53.5204 32.0813 53.111 33.1929C52.7016 34.3045 52.0769 35.3243 51.2725 36.1939C50.4681 37.0635 49.5 37.7657 48.4236 38.2603C47.3473 38.755 46.1839 39.0322 45.0001 39.0763C43.8164 39.0322 42.653 38.755 41.5766 38.2603C40.5003 37.7657 39.5322 37.0635 38.7278 36.1939C37.9234 35.3243 37.2986 34.3045 36.8892 33.1929C36.4799 32.0813 36.2939 30.8999 36.3421 29.7163C36.2915 28.5312 36.4756 27.3478 36.8839 26.2342C37.2922 25.1205 37.9166 24.0986 38.7212 23.227C39.5258 22.3555 40.4947 21.6517 41.5723 21.1559C42.6499 20.6601 43.8148 20.3823 45.0001 20.3383Z" fill="black" fill-opacity="0.5"/>
</svg>
