<svg width="65" height="53" viewBox="0 0 65 53" fill="none" xmlns="http://www.w3.org/2000/svg">
<path d="M31.0372 27.534H1.57172C0.703477 27.534 0 26.8304 0 25.9623C0 25.0941 0.703477 24.3906 1.57172 24.3906H31.0372C31.9055 24.3906 32.609 25.0941 32.609 25.9623C32.609 26.8304 31.9055 27.534 31.0372 27.534Z" fill="white"/>
<path d="M63.2764 27.5341H47.644C46.7758 27.5341 46.0723 26.8305 46.0723 25.9623C46.0723 25.0941 46.7758 24.3906 47.644 24.3906H63.2764C64.1445 24.3906 64.8481 25.0941 64.8481 25.9623C64.8481 26.8305 64.1445 27.5341 63.2764 27.5341Z" fill="white"/>
<path d="M22.7335 47.4364H1.57172C0.703477 47.4364 0 46.7328 0 45.8648C0 44.9967 0.703477 44.293 1.57172 44.293H22.7335C23.6017 44.293 24.3052 44.9967 24.3052 45.8648C24.3052 46.7328 23.6017 47.4364 22.7335 47.4364Z" fill="white"/>
<path d="M63.2761 47.4364H39.3393C38.4712 47.4364 37.7676 46.7328 37.7676 45.8647C37.7676 44.9967 38.4712 44.293 39.3393 44.293H63.2761C64.1442 44.293 64.8478 44.9967 64.8478 45.8647C64.8478 46.7328 64.1442 47.4364 63.2761 47.4364Z" fill="white"/>
<path d="M13.708 8.04579H1.57172C0.703477 8.04579 0 7.34221 0 6.47407C0 5.60593 0.703477 4.90234 1.57172 4.90234H13.708C14.5761 4.90234 15.2797 5.60582 15.2797 6.47407C15.2797 7.34231 14.5762 8.04579 13.708 8.04579Z" fill="white"/>
<path d="M63.2769 8.04579H30.3159C29.4476 8.04579 28.7441 7.34231 28.7441 6.47407C28.7441 5.60582 29.4476 4.90234 30.3159 4.90234H63.2776C64.1457 4.90234 64.8493 5.60582 64.8493 6.47407C64.8487 7.34221 64.1451 8.04579 63.2769 8.04579Z" fill="white"/>
<path d="M18.6111 12.9473C15.0407 12.9473 12.1367 10.0433 12.1367 6.47307C12.1367 2.90397 15.0407 0 18.6111 0C22.1802 0 25.084 2.90397 25.084 6.47307C25.0835 10.0434 22.1795 12.9473 18.6111 12.9473ZM18.6111 3.14355C16.7746 3.14355 15.2803 4.63729 15.2803 6.47307C15.2803 8.30948 16.7746 9.80386 18.6111 9.80386C20.4468 9.80386 21.9406 8.30938 21.9406 6.47307C21.94 4.6374 20.4462 3.14355 18.6111 3.14355Z" fill="white"/>
<path d="M27.3082 52.3388C23.7379 52.3388 20.834 49.4348 20.834 45.8643C20.834 42.2947 23.7379 39.3906 27.3082 39.3906C30.878 39.3906 33.7818 42.2946 33.7818 45.8643C33.7813 49.4348 30.8774 52.3388 27.3082 52.3388ZM27.3082 42.5343C25.4718 42.5343 23.9774 44.0282 23.9774 45.8646C23.9774 47.701 25.4718 49.1955 27.3082 49.1955C29.1446 49.1955 30.6384 47.7011 30.6384 45.8646C30.6384 44.0282 29.1441 42.5343 27.3082 42.5343Z" fill="white"/>
<path d="M35.9405 32.4349C32.3708 32.4349 29.4668 29.5312 29.4668 25.9614C29.4668 22.3923 32.3708 19.4883 35.9405 19.4883C39.5101 19.4883 42.4141 22.3923 42.4141 25.9614C42.4141 29.5311 39.5101 32.4349 35.9405 32.4349ZM35.9405 22.6318C34.1041 22.6318 32.6102 24.1256 32.6102 25.9614C32.6102 27.7978 34.1041 29.2915 35.9405 29.2915C37.7769 29.2915 39.2707 27.7978 39.2707 25.9614C39.2707 24.1256 37.7769 22.6318 35.9405 22.6318Z" fill="white"/>
</svg>
